<?xml version="1.0" encoding="UTF-8" standalone="no"?><!DOCTYPE svg PUBLIC "-//W3C//DTD SVG 1.1//EN" "http://www.w3.org/Graphics/SVG/1.1/DTD/svg11.dtd"><svg width="100%" height="100%" viewBox="0 0 1867 2134" version="1.1" xmlns="http://www.w3.org/2000/svg" xmlns:xlink="http://www.w3.org/1999/xlink" xml:space="preserve" xmlns:serif="http://www.serif.com/" style="fill-rule:evenodd;clip-rule:evenodd;stroke-linejoin:round;stroke-miterlimit:2;"><path d="M0,400c0,-73.75 59.583,-133.333 133.333,-133.333l1600,-0c73.75,-0 133.334,59.583 133.334,133.333c-0,73.75 -59.584,133.333 -133.334,133.333l-1600,0c-73.75,0 -133.333,-59.583 -133.333,-133.333Zm-0,666.667c-0,-73.75 59.583,-133.334 133.333,-133.334l1600,0c73.75,0 133.334,59.584 133.334,133.334c-0,73.75 -59.584,133.333 -133.334,133.333l-1600,0c-73.75,0 -133.333,-59.583 -133.333,-133.333Zm1866.67,666.666c-0,73.75 -59.584,133.334 -133.334,133.334l-1600,-0c-73.75,-0 -133.333,-59.584 -133.333,-133.334c-0,-73.75 59.583,-133.333 133.333,-133.333l1600,0c73.75,0 133.334,59.583 133.334,133.333Z" style="fill:#ef5588;fill-rule:nonzero;"/></svg>