<svg xmlns="http://www.w3.org/2000/svg" width="505.608" height="179.389" viewBox="0 0 505.608 179.389">
  <g id="Group_266" data-name="Group 266" transform="translate(0 0)">
    <path id="Path_114" data-name="Path 114" d="M420.4,0,314.485,179.389h12.791L433.19,0Z" transform="translate(72.418)" fill="#245aa8"/>
    <path id="Path_115" data-name="Path 115" d="M388.95,0,283.037,179.389h12.791L401.742,0Z" transform="translate(65.176)" fill="#245aa8"/>
    <path id="Path_116" data-name="Path 116" d="M168.809,0,62.9,179.389H75.686L181.6,0Z" transform="translate(14.484)" fill="#245aa8"/>
    <path id="Path_117" data-name="Path 117" d="M231.707,0,125.793,179.389h12.79L244.5,0Z" transform="translate(28.967)" fill="#245aa8"/>
    <path id="Path_118" data-name="Path 118" d="M200.259,0,94.346,179.389h12.79L213.051,0Z" transform="translate(21.725)" fill="#245aa8"/>
    <path id="Path_119" data-name="Path 119" d="M137.361,0,31.449,179.389H44.238L150.153,0Z" transform="translate(7.242)" fill="#245aa8"/>
    <path id="Path_120" data-name="Path 120" d="M105.913,0,0,179.389H12.79L118.7,0Z" fill="#245aa8"/>
    <path id="Path_121" data-name="Path 121" d="M263.156,0,157.243,179.389h12.791L275.949,0Z" transform="translate(36.209)" fill="#245aa8"/>
    <path id="Path_122" data-name="Path 122" d="M326.052,0,220.141,179.389h12.79L338.845,0Z" transform="translate(50.693)" fill="#245aa8"/>
    <path id="Path_123" data-name="Path 123" d="M357.5,0,251.588,179.389h12.79L370.292,0Z" transform="translate(57.934)" fill="#245aa8"/>
    <path id="Path_124" data-name="Path 124" d="M294.6,0,188.691,179.389h12.791L307.4,0Z" transform="translate(43.451)" fill="#245aa8"/>
  </g>
</svg>
