<svg xmlns="http://www.w3.org/2000/svg" width="1044" height="27.304" viewBox="0 0 1044 27.304">
  <g id="Group_272" data-name="Group 272" transform="translate(0 0)">
    <path id="Path_410" data-name="Path 410" d="M16.121,0,0,27.3H1.4L17.526,0Z" fill="#d3d1cb"/>
    <path id="Path_411" data-name="Path 411" d="M41.121,0,25,27.3h1.4L42.525,0Z" transform="translate(-12.169)" fill="#d3d1cb"/>
    <path id="Path_412" data-name="Path 412" d="M66.121,0,50,27.3h1.4L67.525,0Z" transform="translate(-24.338)" fill="#d3d1cb"/>
    <path id="Path_413" data-name="Path 413" d="M91.12,0,75,27.3h1.4L92.525,0Z" transform="translate(-36.507)" fill="#d3d1cb"/>
    <path id="Path_414" data-name="Path 414" d="M116.121,0,100,27.3h1.4L117.525,0Z" transform="translate(-48.676)" fill="#d3d1cb"/>
    <path id="Path_415" data-name="Path 415" d="M141.121,0,125,27.3h1.4L142.526,0Z" transform="translate(-60.845)" fill="#d3d1cb"/>
    <path id="Path_416" data-name="Path 416" d="M166.121,0,150,27.3h1.4L167.525,0Z" transform="translate(-73.015)" fill="#d3d1cb"/>
    <path id="Path_417" data-name="Path 417" d="M191.12,0,175,27.3h1.4L192.525,0Z" transform="translate(-85.183)" fill="#d3d1cb"/>
    <path id="Path_418" data-name="Path 418" d="M216.121,0,200,27.3h1.4L217.525,0Z" transform="translate(-97.352)" fill="#d3d1cb"/>
    <path id="Path_419" data-name="Path 419" d="M241.121,0,225,27.3h1.4L242.526,0Z" transform="translate(-109.522)" fill="#d3d1cb"/>
    <path id="Path_420" data-name="Path 420" d="M266.121,0,250,27.3h1.4L267.525,0Z" transform="translate(-121.691)" fill="#d3d1cb"/>
    <path id="Path_421" data-name="Path 421" d="M291.121,0,275,27.3h1.4L292.525,0Z" transform="translate(-133.86)" fill="#d3d1cb"/>
    <path id="Path_422" data-name="Path 422" d="M316.12,0,300,27.3h1.4L317.525,0Z" transform="translate(-146.029)" fill="#d3d1cb"/>
    <path id="Path_423" data-name="Path 423" d="M341.121,0,325,27.3h1.4L342.525,0Z" transform="translate(-158.198)" fill="#d3d1cb"/>
    <path id="Path_424" data-name="Path 424" d="M366.121,0,350,27.3h1.4L367.526,0Z" transform="translate(-170.367)" fill="#d3d1cb"/>
    <path id="Path_425" data-name="Path 425" d="M391.121,0,375,27.3h1.4L392.525,0Z" transform="translate(-182.536)" fill="#d3d1cb"/>
    <path id="Path_426" data-name="Path 426" d="M416.12,0,400,27.3h1.4L417.525,0Z" transform="translate(-194.705)" fill="#d3d1cb"/>
    <path id="Path_427" data-name="Path 427" d="M441.121,0,425,27.3h1.4L442.525,0Z" transform="translate(-206.874)" fill="#d3d1cb"/>
    <path id="Path_428" data-name="Path 428" d="M466.121,0,450,27.3h1.4L467.526,0Z" transform="translate(-219.043)" fill="#d3d1cb"/>
    <path id="Path_429" data-name="Path 429" d="M491.121,0,475,27.3h1.4L492.525,0Z" transform="translate(-231.212)" fill="#d3d1cb"/>
    <path id="Path_430" data-name="Path 430" d="M516.121,0,500,27.3h1.4L517.525,0Z" transform="translate(-243.382)" fill="#d3d1cb"/>
    <path id="Path_431" data-name="Path 431" d="M541.12,0,525,27.3h1.4L542.525,0Z" transform="translate(-255.55)" fill="#d3d1cb"/>
    <path id="Path_432" data-name="Path 432" d="M566.121,0,550,27.3h1.4L567.525,0Z" transform="translate(-267.719)" fill="#d3d1cb"/>
    <path id="Path_433" data-name="Path 433" d="M591.121,0,575,27.3h1.4L592.526,0Z" transform="translate(-279.889)" fill="#d3d1cb"/>
    <path id="Path_434" data-name="Path 434" d="M616.121,0,600,27.3h1.4L617.525,0Z" transform="translate(-292.058)" fill="#d3d1cb"/>
    <path id="Path_435" data-name="Path 435" d="M641.12,0,625,27.3h1.4L642.525,0Z" transform="translate(-304.226)" fill="#d3d1cb"/>
    <path id="Path_436" data-name="Path 436" d="M666.121,0,650,27.3h1.4L667.525,0Z" transform="translate(-316.396)" fill="#d3d1cb"/>
    <path id="Path_437" data-name="Path 437" d="M691.121,0,675,27.3h1.4L692.525,0Z" transform="translate(-328.565)" fill="#d3d1cb"/>
    <path id="Path_438" data-name="Path 438" d="M716.121,0,700,27.3h1.4L717.525,0Z" transform="translate(-340.734)" fill="#d3d1cb"/>
    <path id="Path_439" data-name="Path 439" d="M741.121,0,725,27.3h1.4L742.525,0Z" transform="translate(-352.903)" fill="#d3d1cb"/>
    <path id="Path_440" data-name="Path 440" d="M766.12,0,750,27.3h1.4L767.525,0Z" transform="translate(-365.072)" fill="#d3d1cb"/>
    <path id="Path_441" data-name="Path 441" d="M791.121,0,775,27.3h1.4L792.525,0Z" transform="translate(-377.241)" fill="#d3d1cb"/>
    <path id="Path_442" data-name="Path 442" d="M816.121,0,800,27.3h1.4L817.526,0Z" transform="translate(-389.41)" fill="#d3d1cb"/>
    <path id="Path_443" data-name="Path 443" d="M841.121,0,825,27.3h1.4L842.525,0Z" transform="translate(-401.579)" fill="#d3d1cb"/>
    <path id="Path_444" data-name="Path 444" d="M866.12,0,850,27.3h1.4L867.525,0Z" transform="translate(-413.748)" fill="#d3d1cb"/>
    <path id="Path_445" data-name="Path 445" d="M891.121,0,875,27.3h1.4L892.525,0Z" transform="translate(-425.917)" fill="#d3d1cb"/>
    <path id="Path_446" data-name="Path 446" d="M916.121,0,900,27.3h1.4L917.525,0Z" transform="translate(-438.086)" fill="#d3d1cb"/>
    <path id="Path_447" data-name="Path 447" d="M941.121,0,925,27.3h1.4L942.525,0Z" transform="translate(-450.256)" fill="#d3d1cb"/>
    <path id="Path_448" data-name="Path 448" d="M966.121,0,950,27.3h1.4L967.525,0Z" transform="translate(-462.425)" fill="#d3d1cb"/>
    <path id="Path_449" data-name="Path 449" d="M991.12,0,975,27.3h1.4L992.525,0Z" transform="translate(-474.594)" fill="#d3d1cb"/>
    <path id="Path_450" data-name="Path 450" d="M1016.121,0,1000,27.3h1.4L1017.525,0Z" transform="translate(-486.763)" fill="#d3d1cb"/>
    <path id="Path_451" data-name="Path 451" d="M1041.121,0,1025,27.3h1.4L1042.526,0Z" transform="translate(-498.932)" fill="#d3d1cb"/>
    <path id="Path_452" data-name="Path 452" d="M1066.121,0,1050,27.3h1.4L1067.525,0Z" transform="translate(-511.101)" fill="#d3d1cb"/>
    <path id="Path_453" data-name="Path 453" d="M1091.12,0,1075,27.3h1.4L1092.525,0Z" transform="translate(-523.27)" fill="#d3d1cb"/>
    <path id="Path_454" data-name="Path 454" d="M1116.121,0,1100,27.3h1.4L1117.525,0Z" transform="translate(-535.439)" fill="#d3d1cb"/>
    <path id="Path_455" data-name="Path 455" d="M1141.121,0,1125,27.3h1.4L1142.525,0Z" transform="translate(-547.608)" fill="#d3d1cb"/>
    <path id="Path_456" data-name="Path 456" d="M1166.121,0,1150,27.3h1.4L1167.525,0Z" transform="translate(-559.777)" fill="#d3d1cb"/>
    <path id="Path_457" data-name="Path 457" d="M1191.121,0,1175,27.3h1.4L1192.525,0Z" transform="translate(-571.946)" fill="#d3d1cb"/>
    <path id="Path_458" data-name="Path 458" d="M1216.12,0,1200,27.3h1.4L1217.525,0Z" transform="translate(-584.115)" fill="#d3d1cb"/>
    <path id="Path_459" data-name="Path 459" d="M1241.121,0,1225,27.3h1.4L1242.525,0Z" transform="translate(-596.284)" fill="#d3d1cb"/>
    <path id="Path_460" data-name="Path 460" d="M1266.121,0,1250,27.3h1.4L1267.526,0Z" transform="translate(-608.453)" fill="#d3d1cb"/>
    <path id="Path_461" data-name="Path 461" d="M1291.121,0,1275,27.3h1.4L1292.525,0Z" transform="translate(-620.623)" fill="#d3d1cb"/>
    <path id="Path_462" data-name="Path 462" d="M1316.12,0,1300,27.3h1.4L1317.525,0Z" transform="translate(-632.791)" fill="#d3d1cb"/>
    <path id="Path_463" data-name="Path 463" d="M1341.121,0,1325,27.3h1.4L1342.525,0Z" transform="translate(-644.96)" fill="#d3d1cb"/>
    <path id="Path_464" data-name="Path 464" d="M1366.121,0,1350,27.3h1.4L1367.525,0Z" transform="translate(-657.129)" fill="#d3d1cb"/>
    <path id="Path_465" data-name="Path 465" d="M1391.121,0,1375,27.3h1.4L1392.525,0Z" transform="translate(-669.299)" fill="#d3d1cb"/>
    <path id="Path_466" data-name="Path 466" d="M1416.121,0,1400,27.3h1.4L1417.525,0Z" transform="translate(-681.468)" fill="#d3d1cb"/>
    <path id="Path_467" data-name="Path 467" d="M1441.12,0,1425,27.3h1.4L1442.525,0Z" transform="translate(-693.637)" fill="#d3d1cb"/>
    <path id="Path_468" data-name="Path 468" d="M1466.121,0,1450,27.3h1.4L1467.525,0Z" transform="translate(-705.806)" fill="#d3d1cb"/>
    <path id="Path_469" data-name="Path 469" d="M1491.121,0,1475,27.3h1.4L1492.526,0Z" transform="translate(-717.975)" fill="#d3d1cb"/>
    <path id="Path_470" data-name="Path 470" d="M1516.121,0,1500,27.3h1.4L1517.525,0Z" transform="translate(-730.144)" fill="#d3d1cb"/>
    <path id="Path_471" data-name="Path 471" d="M1541.12,0,1525,27.3h1.4L1542.525,0Z" transform="translate(-742.313)" fill="#d3d1cb"/>
    <path id="Path_472" data-name="Path 472" d="M1566.121,0,1550,27.3h1.4L1567.525,0Z" transform="translate(-754.482)" fill="#d3d1cb"/>
    <path id="Path_473" data-name="Path 473" d="M1591.121,0,1575,27.3h1.4L1592.526,0Z" transform="translate(-766.651)" fill="#d3d1cb"/>
    <path id="Path_474" data-name="Path 474" d="M1616.121,0,1600,27.3h1.4L1617.525,0Z" transform="translate(-778.82)" fill="#d3d1cb"/>
    <path id="Path_475" data-name="Path 475" d="M1641.121,0,1625,27.3h1.4L1642.525,0Z" transform="translate(-790.989)" fill="#d3d1cb"/>
    <path id="Path_476" data-name="Path 476" d="M1666.12,0,1650,27.3h1.4L1667.525,0Z" transform="translate(-803.158)" fill="#d3d1cb"/>
    <path id="Path_477" data-name="Path 477" d="M1691.121,0,1675,27.3h1.4L1692.525,0Z" transform="translate(-815.327)" fill="#d3d1cb"/>
    <path id="Path_478" data-name="Path 478" d="M1716.121,0,1700,27.3h1.4L1717.526,0Z" transform="translate(-827.497)" fill="#d3d1cb"/>
    <path id="Path_479" data-name="Path 479" d="M1741.121,0,1725,27.3h1.4L1742.525,0Z" transform="translate(-839.666)" fill="#d3d1cb"/>
    <path id="Path_480" data-name="Path 480" d="M1766.12,0,1750,27.3h1.4L1767.525,0Z" transform="translate(-851.834)" fill="#d3d1cb"/>
    <path id="Path_481" data-name="Path 481" d="M1791.12,0,1775,27.3h1.4L1792.525,0Z" transform="translate(-864.004)" fill="#d3d1cb"/>
    <path id="Path_482" data-name="Path 482" d="M1816.121,0,1800,27.3h1.4L1817.525,0Z" transform="translate(-876.173)" fill="#d3d1cb"/>
    <path id="Path_483" data-name="Path 483" d="M1841.121,0,1825,27.3h1.4L1842.525,0Z" transform="translate(-888.342)" fill="#d3d1cb"/>
    <path id="Path_484" data-name="Path 484" d="M1866.121,0,1850,27.3h1.4L1867.525,0Z" transform="translate(-900.511)" fill="#d3d1cb"/>
    <path id="Path_485" data-name="Path 485" d="M1891.12,0,1875,27.3h1.4L1892.525,0Z" transform="translate(-912.68)" fill="#d3d1cb"/>
    <path id="Path_486" data-name="Path 486" d="M1916.121,0,1900,27.3h1.4L1917.525,0Z" transform="translate(-924.849)" fill="#d3d1cb"/>
    <path id="Path_487" data-name="Path 487" d="M1941.121,0,1925,27.3h1.4L1942.525,0Z" transform="translate(-937.018)" fill="#d3d1cb"/>
    <path id="Path_488" data-name="Path 488" d="M1966.121,0,1950,27.3h1.4L1967.525,0Z" transform="translate(-949.187)" fill="#d3d1cb"/>
    <path id="Path_489" data-name="Path 489" d="M1991.12,0,1975,27.3h1.4L1992.525,0Z" transform="translate(-961.356)" fill="#d3d1cb"/>
    <path id="Path_490" data-name="Path 490" d="M2016.121,0,2000,27.3h1.4L2017.525,0Z" transform="translate(-973.525)" fill="#d3d1cb"/>
  </g>
</svg>
