<svg xmlns="http://www.w3.org/2000/svg" width="400.774" height="146.794" viewBox="0 0 400.774 146.794">
  <g id="Group_264" data-name="Group 264" transform="translate(0 0)">
    <path id="Path_399" data-name="Path 399" d="M134.33,0l42.551,73.7-42.2,73.092h44.77l42.2-73.092L179.1,0Z" fill="#ef5588"/>
    <path id="Path_400" data-name="Path 400" d="M0,0,.351,146.794h44.77L87.322,73.7,44.77,0Z" fill="#f7c2d1"/>
    <path id="Path_401" data-name="Path 401" d="M44.769,0,87.32,73.7l-42.2,73.092H89.89l42.2-73.092L89.539,0Z" fill="#ef5588"/>
    <path id="Path_402" data-name="Path 402" d="M89.561,0l42.552,73.7-42.2,73.092h44.77l42.2-73.092L134.331,0Z" fill="#f7c2d1"/>
    <path id="Path_403" data-name="Path 403" d="M179.122,0l42.553,73.7-42.2,73.092h44.769l42.2-73.092L223.892,0Z" fill="#f7c2d1"/>
    <path id="Path_404" data-name="Path 404" d="M223.891,0l42.551,73.7-42.2,73.092h44.77l42.2-73.092L268.661,0Z" fill="#ef5588"/>
    <path id="Path_405" data-name="Path 405" d="M268.683,0l42.552,73.7-42.2,73.092H313.8L356,73.7,313.452,0Z" fill="#f7c2d1"/>
    <path id="Path_406" data-name="Path 406" d="M313.452,0,356,73.7l-42.2,73.092h44.77l42.2-73.092L358.222,0Z" fill="#ef5588"/>
  </g>
</svg>
