<svg xmlns="http://www.w3.org/2000/svg" width="357" height="28.428" viewBox="0 0 357 28.428">
  <g id="Group_267" data-name="Group 267" transform="translate(357 28.428) rotate(180)">
    <path id="Path_127" data-name="Path 127" d="M151.828,0l16.594,28.428h11.4L163.227,0Z" transform="translate(105.41)" fill="#d3d1cb"/>
    <path id="Path_128" data-name="Path 128" d="M142.9,0,159.49,28.428h11.4L154.3,0Z" transform="translate(99.209)" fill="#d3d1cb"/>
    <path id="Path_129" data-name="Path 129" d="M133.966,0,150.56,28.428h11.4L145.367,0Z" transform="translate(93.009)" fill="#d3d1cb"/>
    <path id="Path_130" data-name="Path 130" d="M116.1,0,132.7,28.428h11.4L127.5,0Z" transform="translate(80.607)" fill="#d3d1cb"/>
    <path id="Path_131" data-name="Path 131" d="M125.035,0l16.594,28.428h11.4L136.436,0Z" transform="translate(86.808)" fill="#d3d1cb"/>
    <path id="Path_132" data-name="Path 132" d="M196.483,0l16.594,28.428h7.509V21.76L207.884,0Z" transform="translate(136.413)" fill="#d3d1cb"/>
    <path id="Path_133" data-name="Path 133" d="M107.173,0l16.594,28.428h11.4L118.574,0Z" transform="translate(74.407)" fill="#d3d1cb"/>
    <path id="Path_134" data-name="Path 134" d="M205.414,0l8.973,15.367V0Z" transform="translate(142.613)" fill="#d3d1cb"/>
    <path id="Path_135" data-name="Path 135" d="M178.622,0l16.594,28.428h11.4L190.021,0Z" transform="translate(124.012)" fill="#d3d1cb"/>
    <path id="Path_136" data-name="Path 136" d="M187.553,0l16.594,28.428h11.4L198.954,0Z" transform="translate(130.212)" fill="#d3d1cb"/>
    <path id="Path_137" data-name="Path 137" d="M169.691,0l16.594,28.428h11.4L181.091,0Z" transform="translate(117.811)" fill="#d3d1cb"/>
    <path id="Path_138" data-name="Path 138" d="M160.759,0l16.594,28.428h11.4L172.16,0Z" transform="translate(111.61)" fill="#d3d1cb"/>
    <path id="Path_139" data-name="Path 139" d="M44.655,0,61.249,28.428h11.4L56.056,0Z" transform="translate(31.003)" fill="#d3d1cb"/>
    <path id="Path_140" data-name="Path 140" d="M26.793,0,43.387,28.428h11.4L38.192,0Z" transform="translate(18.602)" fill="#d3d1cb"/>
    <path id="Path_141" data-name="Path 141" d="M35.724,0,52.317,28.428h11.4L47.124,0Z" transform="translate(24.802)" fill="#d3d1cb"/>
    <path id="Path_142" data-name="Path 142" d="M17.861,0,34.455,28.428h11.4L29.262,0Z" transform="translate(12.401)" fill="#d3d1cb"/>
    <path id="Path_143" data-name="Path 143" d="M0,0,16.594,28.428h11.4L11.4,0Z" fill="#d3d1cb"/>
    <path id="Path_144" data-name="Path 144" d="M8.93,0l16.6,28.428h11.4L20.331,0Z" transform="translate(6.2)" fill="#d3d1cb"/>
    <path id="Path_145" data-name="Path 145" d="M71.448,0,88.042,28.428h11.4L82.849,0Z" transform="translate(49.604)" fill="#d3d1cb"/>
    <path id="Path_146" data-name="Path 146" d="M53.586,0,70.18,28.428h11.4L64.987,0Z" transform="translate(37.203)" fill="#d3d1cb"/>
    <path id="Path_147" data-name="Path 147" d="M80.379,0,96.973,28.428h11.4L91.78,0Z" transform="translate(55.805)" fill="#d3d1cb"/>
    <path id="Path_148" data-name="Path 148" d="M89.311,0,105.9,28.428h11.4L100.71,0Z" transform="translate(62.006)" fill="#d3d1cb"/>
    <path id="Path_149" data-name="Path 149" d="M62.518,0,79.111,28.428h11.4L73.918,0Z" transform="translate(43.404)" fill="#d3d1cb"/>
    <path id="Path_150" data-name="Path 150" d="M98.241,0l16.594,28.428h11.4L109.642,0Z" transform="translate(68.206)" fill="#d3d1cb"/>
  </g>
</svg>
