<svg xmlns="http://www.w3.org/2000/svg" width="351.596" height="27.998" viewBox="0 0 351.596 27.998">
  <g id="Group_286" data-name="Group 286" transform="translate(0 0)">
    <path id="Path_127" data-name="Path 127" d="M151.828,0l16.342,28H179.4L163.055,0Z" transform="translate(101.516)" fill="#ef5588"/>
    <path id="Path_128" data-name="Path 128" d="M142.9,0l16.342,28h11.226L154.125,0Z" transform="translate(95.544)" fill="#ef5588"/>
    <path id="Path_129" data-name="Path 129" d="M133.966,0l16.342,28h11.226L145.194,0Z" transform="translate(89.573)" fill="#ef5588"/>
    <path id="Path_130" data-name="Path 130" d="M116.1,0l16.342,28h11.226L127.332,0Z" transform="translate(77.629)" fill="#ef5588"/>
    <path id="Path_131" data-name="Path 131" d="M125.035,0l16.342,28H152.6L136.263,0Z" transform="translate(83.601)" fill="#ef5588"/>
    <path id="Path_132" data-name="Path 132" d="M196.483,0l16.342,28h7.4V21.43L207.712,0Z" transform="translate(131.373)" fill="#ef5588"/>
    <path id="Path_133" data-name="Path 133" d="M107.173,0l16.342,28h11.226L118.4,0Z" transform="translate(71.658)" fill="#ef5588"/>
    <path id="Path_134" data-name="Path 134" d="M205.414,0l8.837,15.134V0Z" transform="translate(137.344)" fill="#ef5588"/>
    <path id="Path_135" data-name="Path 135" d="M178.622,0l16.342,28h11.226L189.849,0Z" transform="translate(119.431)" fill="#ef5588"/>
    <path id="Path_136" data-name="Path 136" d="M187.553,0,203.9,28H215.12L198.781,0Z" transform="translate(125.402)" fill="#ef5588"/>
    <path id="Path_137" data-name="Path 137" d="M169.691,0l16.342,28h11.226L180.919,0Z" transform="translate(113.459)" fill="#ef5588"/>
    <path id="Path_138" data-name="Path 138" d="M160.759,0,177.1,28h11.227L171.987,0Z" transform="translate(107.487)" fill="#ef5588"/>
    <path id="Path_139" data-name="Path 139" d="M44.655,0,61,28H72.224L55.883,0Z" transform="translate(29.858)" fill="#ef5588"/>
    <path id="Path_140" data-name="Path 140" d="M26.793,0,43.135,28H54.36L38.019,0Z" transform="translate(17.914)" fill="#ef5588"/>
    <path id="Path_141" data-name="Path 141" d="M35.724,0,52.066,28H63.293L46.952,0Z" transform="translate(23.886)" fill="#ef5588"/>
    <path id="Path_142" data-name="Path 142" d="M17.861,0,34.2,28H45.43L29.09,0Z" transform="translate(11.943)" fill="#ef5588"/>
    <path id="Path_143" data-name="Path 143" d="M0,0,16.342,28H27.569L11.228,0Z" fill="#ef5588"/>
    <path id="Path_144" data-name="Path 144" d="M8.93,0,25.274,28H36.5L20.158,0Z" transform="translate(5.971)" fill="#ef5588"/>
    <path id="Path_145" data-name="Path 145" d="M71.448,0,87.791,28H99.017L82.676,0Z" transform="translate(47.772)" fill="#ef5588"/>
    <path id="Path_146" data-name="Path 146" d="M53.586,0,69.928,28H81.155L64.814,0Z" transform="translate(35.829)" fill="#ef5588"/>
    <path id="Path_147" data-name="Path 147" d="M80.379,0,96.721,28h11.226L91.607,0Z" transform="translate(53.743)" fill="#ef5588"/>
    <path id="Path_148" data-name="Path 148" d="M89.311,0l16.342,28H116.88L100.537,0Z" transform="translate(59.715)" fill="#ef5588"/>
    <path id="Path_149" data-name="Path 149" d="M62.518,0,78.86,28H90.085L73.746,0Z" transform="translate(41.801)" fill="#ef5588"/>
    <path id="Path_150" data-name="Path 150" d="M98.241,0l16.342,28H125.81L109.469,0Z" transform="translate(65.686)" fill="#ef5588"/>
  </g>
</svg>
