<svg id="Group_2" data-name="Group 2" xmlns="http://www.w3.org/2000/svg" xmlns:xlink="http://www.w3.org/1999/xlink" width="174.477" height="84.719" viewBox="0 0 174.477 84.719">
  <defs>
    <clipPath id="clip-path">
      <rect id="Rectangle_2" data-name="Rectangle 2" width="174.477" height="84.719" fill="none"/>
    </clipPath>
  </defs>
  <g id="Group_1" data-name="Group 1" clip-path="url(#clip-path)">
    <path id="Path_1" data-name="Path 1" d="M373.561,70.379c1.874,0,13.466,0,15.338,0a.262.262,0,0,1,.255.269v3.723a.262.262,0,0,1-.255.269c-1.552,0-9.666,0-9.666,0v3.18s7.463,0,8.948,0a.262.262,0,0,1,.255.269v3.533a.262.262,0,0,1-.255.269c-1.485,0-8.948,0-8.948,0v3.944s8.373,0,9.952,0a.262.262,0,0,1,.255.269v3.983a.262.262,0,0,1-.255.269c-1.892,0-13.728,0-15.624,0a.262.262,0,0,1-.256-.269V70.648a.262.262,0,0,1,.256-.269" transform="translate(-260.459 -49.104)" fill="#245aa8"/>
    <path id="Path_2" data-name="Path 2" d="M523.982,70.379c1.874,0,13.466,0,15.338,0a.262.262,0,0,1,.255.269v3.723a.262.262,0,0,1-.255.269c-1.552,0-9.666,0-9.666,0v3.18s7.463,0,8.948,0a.262.262,0,0,1,.255.269v3.533a.262.262,0,0,1-.255.269c-1.485,0-8.948,0-8.948,0v3.944s8.373,0,9.952,0a.262.262,0,0,1,.255.269v3.983a.262.262,0,0,1-.255.269c-1.892,0-13.728,0-15.624,0a.262.262,0,0,1-.256-.269V70.648a.262.262,0,0,1,.256-.269" transform="translate(-365.409 -49.104)" fill="#245aa8"/>
    <path id="Path_3" data-name="Path 3" d="M430.782,70.379h5a.3.3,0,0,1,.291.252l1.88,10.415a.119.119,0,0,0,.233.01l2.762-10.45a.3.3,0,0,1,.285-.227h5.146a.3.3,0,0,1,.285.227l2.769,10.437a.119.119,0,0,0,.233-.01l1.883-10.4a.3.3,0,0,1,.291-.252h4.973a.306.306,0,0,1,.289.376l-4.1,19.433a.238.238,0,0,1-.23.193h-5.43a.237.237,0,0,1-.227-.18l-3.193-11.979a.119.119,0,0,0-.231,0L440.517,90.2a.237.237,0,0,1-.227.18h-5.431a.238.238,0,0,1-.23-.193l-4.137-19.433a.307.307,0,0,1,.289-.377" transform="translate(-300.354 -49.104)" fill="#245aa8"/>
    <path id="Path_4" data-name="Path 4" d="M312.724,74.654v4.771h1.785c2.661,0,3.933-.561,3.933-2.6,0-1.974-1.564-2.166-3.794-2.166Zm1.871-4.388c6.714,0,9.258,2.65,9.258,6.652,0,2.813-1.045,4.7-3.6,5.742,0,0-.088.027-.034.125.874,1.639,2.061,2.909,4.595,2.462.179-.031.326.162.317.352l0,4.4a.36.36,0,0,1-.329.321c-5.99,1.007-7.428-1.244-10.035-6.673h-2.048v6.427a.225.225,0,0,1-.219.229h-5.463a.225.225,0,0,1-.219-.229V70.589a.335.335,0,0,1,.3-.336Z" transform="translate(-214.073 -49.016)" fill="#245aa8"/>
    <path id="Path_5" data-name="Path 5" d="M251.432,84.86c-2.479,0-3.942-2.218-3.943-5.551s1.465-5.551,3.943-5.551a3.829,3.829,0,0,1,3.535,2.594.377.377,0,0,0,.492.221l4.3-1.713a.175.175,0,0,0,.1-.216c-1.146-3.455-3.676-5.678-8.154-5.678-6.514,0-9.589,4.63-9.59,10.343s3.076,10.343,9.59,10.343c4.477,0,7.008-2.223,8.154-5.678a.175.175,0,0,0-.1-.216l-4.3-1.713a.377.377,0,0,0-.492.221,3.829,3.829,0,0,1-3.535,2.594" transform="translate(-168.921 -48.118)" fill="#245aa8"/>
    <path id="Path_6" data-name="Path 6" d="M252.667,157.534h-2.007l-.378-1.123h-2.007l-.368,1.123h-1.86l2.109-6.317h2.4Zm-3.407-4.374-.543,1.915h1.123l-.534-1.915Z" transform="translate(-171.669 -105.506)" fill="#ef5588"/>
    <path id="Path_7" data-name="Path 7" d="M273.372,152.737h-1.6v4.8h-1.915v-4.8h-1.6v-1.519h5.12Z" transform="translate(-187.163 -105.506)" fill="#ef5588"/>
    <path id="Path_8" data-name="Path 8" d="M297.07,152.737h-1.6v4.8h-1.915v-4.8h-1.6v-1.519h5.12Z" transform="translate(-203.697 -105.506)" fill="#ef5588"/>
    <path id="Path_9" data-name="Path 9" d="M316.448,157.535h-1.933v-2.458h-1.492v2.458H311.08v-6.317h1.934v2.33h1.491v-2.33h1.943Z" transform="translate(-217.044 -105.506)" fill="#ef5588"/>
    <path id="Path_10" data-name="Path 10" d="M336.869,152.673h-2.661v.921h2.56V155h-2.56v1.022h2.661l.184,1.51h-4.742v-6.317h4.742Z" transform="translate(-231.857 -105.506)" fill="#ef5588"/>
    <path id="Path_11" data-name="Path 11" d="M361.8,157.535H359.87v-2.458h-1.492v2.458h-1.943v-6.317h1.934v2.33h1.492v-2.33H361.8Z" transform="translate(-248.689 -105.506)" fill="#ef5588"/>
    <path id="Path_12" data-name="Path 12" d="M382.225,152.673h-2.661v.921h2.56V155h-2.56v1.022h2.661l.184,1.51h-4.742v-6.317h4.742Z" transform="translate(-263.503 -105.506)" fill="#ef5588"/>
    <path id="Path_13" data-name="Path 13" d="M400.676,157.534h-2.007l-.378-1.123h-2.007l-.368,1.123h-1.86l2.109-6.317h2.4Zm-3.407-4.374-.543,1.915h1.123l-.534-1.915Z" transform="translate(-274.937 -105.506)" fill="#ef5588"/>
    <path id="Path_14" data-name="Path 14" d="M421.937,151.415a1.7,1.7,0,0,1,.649.553,1.382,1.382,0,0,1,.249.815,1.518,1.518,0,0,1-.152.654,1.707,1.707,0,0,1-.41.553,1.146,1.146,0,0,1-.571.285v.046a1.289,1.289,0,0,1,.76.585,2,2,0,0,1,.253,1.036,2.9,2.9,0,0,0,.083.741.518.518,0,0,0,.387.391v.378a2.935,2.935,0,0,1-1.105.175,1.488,1.488,0,0,1-.976-.271,1.14,1.14,0,0,1-.322-.916,2.641,2.641,0,0,0-.152-.981.641.641,0,0,0-.668-.373h-.534v2.449H417.54v-6.317h3.545a1.9,1.9,0,0,1,.852.2m-2.509,2.261h.976a.455.455,0,0,0,.46-.46v-.092a.456.456,0,0,0-.46-.461h-.976Z" transform="translate(-291.322 -105.506)" fill="#ef5588"/>
    <path id="Path_15" data-name="Path 15" d="M441.88,152.737h-1.6v4.8h-1.915v-4.8h-1.6v-1.519h5.12Z" transform="translate(-304.733 -105.506)" fill="#ef5588"/>
    <path id="Path_16" data-name="Path 16" d="M465.61,151.348a2.805,2.805,0,0,1,1,1,2.671,2.671,0,0,1,.373,1.386v.958a2.67,2.67,0,0,1-.373,1.386,2.811,2.811,0,0,1-1,1,2.675,2.675,0,0,1-1.386.373h-.515a2.674,2.674,0,0,1-1.386-.373,2.814,2.814,0,0,1-1-1,2.673,2.673,0,0,1-.373-1.386v-.958a2.674,2.674,0,0,1,.373-1.386,2.808,2.808,0,0,1,1-1,2.671,2.671,0,0,1,1.386-.373h.515a2.672,2.672,0,0,1,1.386.373m-2.316,1.312a.889.889,0,0,0-.267.654v1.777a.913.913,0,0,0,.921.921h.046a.912.912,0,0,0,.921-.921v-1.777a.912.912,0,0,0-.921-.921h-.046a.889.889,0,0,0-.654.267" transform="translate(-321.607 -105.337)" fill="#ef5588"/>
    <path id="Path_17" data-name="Path 17" d="M487.992,152.718h-2.5v1.031h2.321v1.418H485.5v2.366H483.61v-6.317h4.567Z" transform="translate(-337.42 -105.506)" fill="#ef5588"/>
    <path id="Path_18" data-name="Path 18" d="M510.974,151.415a1.694,1.694,0,0,1,.649.553,1.383,1.383,0,0,1,.249.815,1.519,1.519,0,0,1-.152.654,1.709,1.709,0,0,1-.41.553,1.146,1.146,0,0,1-.571.285v.046a1.289,1.289,0,0,1,.76.585,2,2,0,0,1,.253,1.036,2.9,2.9,0,0,0,.083.741.519.519,0,0,0,.387.391v.378a2.935,2.935,0,0,1-1.105.175,1.488,1.488,0,0,1-.976-.271,1.14,1.14,0,0,1-.322-.916,2.649,2.649,0,0,0-.152-.981.641.641,0,0,0-.668-.373h-.534v2.449h-1.888v-6.317h3.545a1.9,1.9,0,0,1,.852.2m-2.509,2.261h.976a.456.456,0,0,0,.46-.46v-.092a.457.457,0,0,0-.46-.461h-.976Z" transform="translate(-353.444 -105.506)" fill="#ef5588"/>
    <path id="Path_19" data-name="Path 19" d="M532.083,157.534h-2.008l-.378-1.123H527.69l-.369,1.123h-1.86l2.109-6.317h2.4Zm-3.407-4.374-.543,1.915h1.123l-.534-1.915Z" transform="translate(-366.621 -105.506)" fill="#ef5588"/>
    <path id="Path_20" data-name="Path 20" d="M551.751,152.571h-.746v3.6h.746v1.363h-3.444v-1.363h.746v-3.6h-.746v-1.354h3.444Z" transform="translate(-382.56 -105.506)" fill="#ef5588"/>
    <path id="Path_21" data-name="Path 21" d="M564.486,155.988h2.293l.184,1.547h-4.429v-6.317h1.952Z" transform="translate(-392.486 -105.506)" fill="#ef5588"/>
    <path id="Path_22" data-name="Path 22" d="M356.967,191.824l.484-2.172h1.043l-.484,2.172h1.4l.484-2.172h1.033q-.291,1.323-.495,2.172h1.054v.989h-1.248l-.323,1.484H361.1v.989h-1.419q-.161.753-.409,1.85h-1.032q.247-1.1.409-1.85h-1.409l-.4,1.85h-1.043l.409-1.85h-1.118V194.3h1.344l.333-1.484h-1.226v-.989Zm.495,2.484h1.409l.333-1.484h-1.42Z" transform="translate(-247.747 -132.322)" fill="#1c2e40"/>
    <path id="Path_23" data-name="Path 23" d="M383.172,197.385v-3.076h-2.549v3.076h-1.667v-7.377h1.656v2.925h2.559v-2.925h1.656v7.377Z" transform="translate(-264.402 -132.57)" fill="#1c2e40"/>
    <path id="Path_24" data-name="Path 24" d="M407.579,200.636a2.021,2.021,0,0,1-.909.721,3.217,3.217,0,0,1-1.231.231h-.172a2.908,2.908,0,0,1-1.377-.323,2.354,2.354,0,0,1-.962-.93,2.852,2.852,0,0,1-.35-1.446v-.312a2.825,2.825,0,0,1,.355-1.441,2.391,2.391,0,0,1,.963-.936,2.875,2.875,0,0,1,1.371-.323h.172a2.819,2.819,0,0,1,1.237.274,2.235,2.235,0,0,1,.914.8,2.184,2.184,0,0,1,.344,1.231V199H404.17v.258a1.308,1.308,0,0,0,.317.9,1.093,1.093,0,0,0,.865.36.975.975,0,0,0,1.065-1.086h1.506a2.05,2.05,0,0,1-.344,1.21m-3.07-3.35a1.418,1.418,0,0,0-.339.85h2.172a1.353,1.353,0,0,0-.253-.866,1.122,1.122,0,0,0-1.581.016" transform="translate(-280.883 -136.666)" fill="#1c2e40"/>
    <path id="Path_25" data-name="Path 25" d="M426.735,197.178a1.042,1.042,0,0,0-.748-.226,1.2,1.2,0,0,0-.516.1.859.859,0,0,0-.328.253.478.478,0,0,0-.113.279v.086h-1.517a1.273,1.273,0,0,1-.021-.194,1.254,1.254,0,0,1,.307-.828,2,2,0,0,1,.855-.57,3.6,3.6,0,0,1,1.258-.2h.226a2.884,2.884,0,0,1,1.764.457,1.487,1.487,0,0,1,.6,1.253v2.538a.408.408,0,0,0,.092.29.291.291,0,0,0,.22.1.762.762,0,0,0,.237-.043c.086-.029.154-.054.2-.075v.968a1.886,1.886,0,0,1-.946.226,1.453,1.453,0,0,1-.9-.242.973.973,0,0,1-.365-.683,2.3,2.3,0,0,1-1.85.925,2.472,2.472,0,0,1-1.344-.333,1.386,1.386,0,0,1-.527-1.269,1.51,1.51,0,0,1,.436-1.167,2.351,2.351,0,0,1,1.21-.543,11.644,11.644,0,0,1,2-.14v-.365a.79.79,0,0,0-.231-.592m-1.291,2.038a.678.678,0,0,0-.5.651.578.578,0,0,0,.2.5,1.035,1.035,0,0,0,.608.145,1.167,1.167,0,0,0,.559-.151,1.306,1.306,0,0,0,.468-.43,1.091,1.091,0,0,0,.188-.624v-.29a4.364,4.364,0,0,0-1.522.2" transform="translate(-295.355 -136.666)" fill="#1c2e40"/>
    <path id="Path_26" data-name="Path 26" d="M448.676,197.867a.927.927,0,0,0-.183-.575.68.68,0,0,0-.581-.242.651.651,0,0,0-.576.3,1.294,1.294,0,0,0-.2.737v3.4h-1.549v-5.5h1.162l.193.807a1.315,1.315,0,0,1,.22-.333,1.731,1.731,0,0,1,.516-.4,1.666,1.666,0,0,1,.8-.183,1.439,1.439,0,0,1,1.145.462,1.8,1.8,0,0,1,.4,1.226,3.19,3.19,0,0,1-.016.322c-.011.108-.02.183-.027.226h-1.312Z" transform="translate(-310.892 -136.666)" fill="#1c2e40"/>
    <path id="Path_27" data-name="Path 27" d="M464.379,197.731a3.771,3.771,0,0,1-.618.059,1.888,1.888,0,0,1-1.247-.355,1.472,1.472,0,0,1-.419-1.183v-2.99h-.6v-1.076h.656l.549-1.753h.968v1.753h1.28v1.076h-1.28v2.721a.772.772,0,0,0,.167.581.638.638,0,0,0,.446.151,1.691,1.691,0,0,0,.333-.043,1.9,1.9,0,0,0,.333-.1v1.011a2.831,2.831,0,0,1-.564.145" transform="translate(-321.987 -132.868)" fill="#1c2e40"/>
    <path id="Path_28" data-name="Path 28" d="M481.827,195.727a2.93,2.93,0,0,1-1.188,1.129,3.758,3.758,0,0,1-3.323,0,2.925,2.925,0,0,1-1.189-1.129,3.367,3.367,0,0,1-.441-1.753v-1.054a3.366,3.366,0,0,1,.441-1.753,2.925,2.925,0,0,1,1.189-1.129,3.758,3.758,0,0,1,3.323,0,2.931,2.931,0,0,1,1.188,1.129,3.369,3.369,0,0,1,.441,1.753v1.054a3.37,3.37,0,0,1-.441,1.753M480.1,191.42a1.624,1.624,0,0,0-2.237,0,1.747,1.747,0,0,0-.43,1.264v1.527a1.747,1.747,0,0,0,.43,1.264,1.625,1.625,0,0,0,2.237,0,1.748,1.748,0,0,0,.43-1.264v-1.527a1.748,1.748,0,0,0-.43-1.264" transform="translate(-331.892 -132.322)" fill="#1c2e40"/>
    <path id="Path_29" data-name="Path 29" d="M503.278,189.615a1.891,1.891,0,0,0-.323-.037.721.721,0,0,0-.436.129.609.609,0,0,0-.177.516v.623h1.28v1.076h-1.28v4.42h-1.57v-4.42h-.645v-1.076h.645v-.72a1.445,1.445,0,0,1,1.656-1.613,3.553,3.553,0,0,1,.624.064,2.525,2.525,0,0,1,.57.161v.957a3.266,3.266,0,0,0-.344-.081" transform="translate(-348.944 -131.528)" fill="#1c2e40"/>
    <path id="Path_30" data-name="Path 30" d="M520.052,197.46a1.4,1.4,0,0,1-.892-.269,1.078,1.078,0,0,1-.344-.9,3.469,3.469,0,0,0-.242-1.441.909.909,0,0,0-.909-.516h-1.248v3.054h-1.634v-7.377h3.3a3.382,3.382,0,0,1,1.769.43,1.507,1.507,0,0,1,.715,1.4,1.823,1.823,0,0,1-.172.764,1.9,1.9,0,0,1-.479.645,1.371,1.371,0,0,1-.672.333v.053a1.638,1.638,0,0,1,.828.645,2.224,2.224,0,0,1,.355,1.323q0,1.183.548,1.355v.365a2.563,2.563,0,0,1-.925.14m-1.414-4.667a.753.753,0,0,0,.253-.57v-.075a.776.776,0,0,0-.242-.586.858.858,0,0,0-.618-.231h-1.613v1.7h1.613a.859.859,0,0,0,.608-.236" transform="translate(-359.17 -132.57)" fill="#1c2e40"/>
    <path id="Path_31" data-name="Path 31" d="M540.788,197.178a1.042,1.042,0,0,0-.748-.226,1.2,1.2,0,0,0-.516.1.859.859,0,0,0-.328.253.478.478,0,0,0-.113.279v.086h-1.517a1.283,1.283,0,0,1-.021-.194,1.254,1.254,0,0,1,.306-.828,2,2,0,0,1,.855-.57,3.6,3.6,0,0,1,1.258-.2h.226a2.883,2.883,0,0,1,1.763.457,1.487,1.487,0,0,1,.6,1.253v2.538a.407.407,0,0,0,.092.29.291.291,0,0,0,.22.1.762.762,0,0,0,.237-.043c.086-.029.154-.054.2-.075v.968a1.886,1.886,0,0,1-.946.226,1.453,1.453,0,0,1-.9-.242.973.973,0,0,1-.365-.683,2.3,2.3,0,0,1-1.85.925,2.472,2.472,0,0,1-1.344-.333,1.386,1.386,0,0,1-.527-1.269,1.51,1.51,0,0,1,.436-1.167,2.35,2.35,0,0,1,1.21-.543,11.644,11.644,0,0,1,2-.14v-.365a.791.791,0,0,0-.231-.592m-1.291,2.038a.678.678,0,0,0-.5.651.578.578,0,0,0,.2.5,1.035,1.035,0,0,0,.608.145,1.167,1.167,0,0,0,.559-.151,1.306,1.306,0,0,0,.468-.43,1.091,1.091,0,0,0,.188-.624v-.29a4.365,4.365,0,0,0-1.522.2" transform="translate(-374.931 -136.666)" fill="#1c2e40"/>
    <path id="Path_32" data-name="Path 32" d="M559.608,188.8H561.2v1.237h-1.592Zm.011,2.247h1.57v5.5h-1.57Z" transform="translate(-390.445 -131.726)" fill="#1c2e40"/>
    <rect id="Rectangle_1" data-name="Rectangle 1" width="1.57" height="7.743" transform="translate(172.185 57.072)" fill="#1c2e40"/>
    <path id="Path_33" data-name="Path 33" d="M143.9,104.394l-2.147,2.4,3.633.633,0,0,1.034,3.539,2.147-2.4-1.034-3.539,0,0Z" transform="translate(-98.906 -72.837)" fill="#245aa8"/>
    <path id="Path_34" data-name="Path 34" d="M161.018,85.25l-2.147,2.4,3.633.633,0,0,1.034,3.539,2.147-2.4-1.034-3.539,0,0Z" transform="translate(-110.846 -59.48)" fill="#245aa8"/>
    <path id="Path_35" data-name="Path 35" d="M178.132,66.107l-2.147,2.4,3.633.633,0,0,1.034,3.539,2.147-2.4-1.034-3.539,0,0Z" transform="translate(-122.786 -46.124)" fill="#245aa8"/>
    <path id="Path_36" data-name="Path 36" d="M195.245,46.964l-2.147,2.4L196.73,50l0,0,1.034,3.539,2.147-2.4L198.876,47.6l0,0Z" transform="translate(-134.727 -32.767)" fill="#245aa8"/>
    <path id="Path_37" data-name="Path 37" d="M104.422,97.6l.4,2.992,2.862-2.222v0l3.343,1.4-.4-2.992-3.343-1.4v0Z" transform="translate(-72.857 -66.546)" fill="#245aa8"/>
    <path id="Path_38" data-name="Path 38" d="M101.253,73.756l.4,2.992,2.862-2.222v0l3.343,1.4-.4-2.992-3.343-1.4v0Z" transform="translate(-70.645 -49.909)" fill="#245aa8"/>
    <path id="Path_39" data-name="Path 39" d="M98.084,49.911l.4,2.992,2.862-2.222v0l3.343,1.4-.4-2.992-3.343-1.4v0Z" transform="translate(-68.434 -33.273)" fill="#245aa8"/>
    <path id="Path_40" data-name="Path 40" d="M94.914,26.067l.4,2.992,2.862-2.222v0l3.343,1.4-.4-2.992-3.343-1.4v0Z" transform="translate(-66.223 -16.636)" fill="#245aa8"/>
    <path id="Path_41" data-name="Path 41" d="M91.745,2.222l.4,2.992L95,2.992v0l3.343,1.4-.4-2.992L94.607,0V0Z" transform="translate(-64.011 0)" fill="#245aa8"/>
    <path id="Path_42" data-name="Path 42" d="M74.3,117.129l2.1,1.8.768-3.465,0,0,3.307-1.287-2.1-1.8-3.307,1.287,0,0Z" transform="translate(-51.837 -78.408)" fill="#245aa8"/>
    <path id="Path_43" data-name="Path 43" d="M57.572,102.788l2.1,1.8.768-3.465,0,0,3.307-1.287-2.1-1.8-3.307,1.287,0,0Z" transform="translate(-40.168 -68.402)" fill="#245aa8"/>
    <path id="Path_44" data-name="Path 44" d="M40.847,88.447l2.1,1.8.768-3.465,0,0L47.023,85.5l-2.1-1.8-3.307,1.287,0,0Z" transform="translate(-28.5 -58.396)" fill="#245aa8"/>
    <path id="Path_45" data-name="Path 45" d="M82.735,179.335l2.478-1.854L81.839,176.1l0,0-.376-3.628-2.478,1.854.376,3.627,0,0Z" transform="translate(-55.111 -120.332)" fill="#245aa8"/>
    <path id="Path_46" data-name="Path 46" d="M62.988,194.106l2.478-1.854-3.374-1.385,0,0-.376-3.628-2.478,1.854.376,3.627,0,0Z" transform="translate(-41.333 -130.638)" fill="#245aa8"/>
    <path id="Path_47" data-name="Path 47" d="M43.241,208.877l2.478-1.854-3.374-1.385,0,0-.376-3.628-2.478,1.854.376,3.627,0,0Z" transform="translate(-27.556 -140.944)" fill="#245aa8"/>
    <path id="Path_48" data-name="Path 48" d="M23.494,223.648l2.478-1.854L22.6,220.409l0,0-.376-3.628-2.478,1.854.376,3.627,0,0Z" transform="translate(-13.778 -151.249)" fill="#245aa8"/>
    <path id="Path_49" data-name="Path 49" d="M3.747,238.418l2.478-1.854L2.851,235.18l0,0-.376-3.628L0,233.4l.376,3.627,0,0Z" transform="translate(0 -161.555)" fill="#245aa8"/>
    <path id="Path_50" data-name="Path 50" d="M131.208,189.945l-1.123-3.075-2.261,2.934v0l-3.619-.786,1.123,3.075,3.62.786v0Z" transform="translate(-86.658 -130.381)" fill="#245aa8"/>
    <path id="Path_51" data-name="Path 51" d="M140.158,214.448l-1.123-3.075-2.261,2.934v0l-3.619-.786,1.123,3.075,3.62.786v0Z" transform="translate(-92.903 -147.478)" fill="#245aa8"/>
    <path id="Path_52" data-name="Path 52" d="M149.107,238.952l-1.123-3.075-2.261,2.934v0l-3.619-.786,1.123,3.075,3.62.786v0Z" transform="translate(-99.147 -164.574)" fill="#245aa8"/>
    <path id="Path_53" data-name="Path 53" d="M158.057,263.455l-1.123-3.075-2.261,2.934v0l-3.619-.786,1.123,3.075,3.62.786v0Z" transform="translate(-105.391 -181.67)" fill="#245aa8"/>
    <path id="Path_54" data-name="Path 54" d="M163.149,163.071l-3.134-1.423.6,3.711,0,0-3.19,1.989,3.134,1.423,3.19-1.989h0Z" transform="translate(-109.836 -112.783)" fill="#245aa8"/>
    <path id="Path_55" data-name="Path 55" d="M188.127,174.414l-3.134-1.423.6,3.711,0,0-3.19,1.989,3.134,1.423,3.19-1.989,0,0Z" transform="translate(-127.263 -120.698)" fill="#245aa8"/>
    <path id="Path_56" data-name="Path 56" d="M213.1,185.757l-3.134-1.423.6,3.711,0,0-3.19,1.989,3.134,1.423,3.19-1.989h0Z" transform="translate(-144.69 -128.612)" fill="#245aa8"/>
    <path id="Path_57" data-name="Path 57" d="M109.9,128.649a10.162,10.162,0,1,1-10.163-10.163A10.163,10.163,0,0,1,109.9,128.649" transform="translate(-62.501 -82.669)" fill="#ef5588"/>
  </g>
</svg>
