<?xml version="1.0" encoding="UTF-8" standalone="no"?><!DOCTYPE svg PUBLIC "-//W3C//DTD SVG 1.1//EN" "http://www.w3.org/Graphics/SVG/1.1/DTD/svg11.dtd"><svg width="100%" height="100%" viewBox="0 0 1334 2134" version="1.1" xmlns="http://www.w3.org/2000/svg" xmlns:xlink="http://www.w3.org/1999/xlink" xml:space="preserve" xmlns:serif="http://www.serif.com/" style="fill-rule:evenodd;clip-rule:evenodd;stroke-linejoin:round;stroke-miterlimit:2;"><path d="M1294.17,627.5c52.083,-52.083 52.083,-136.667 -0,-188.75c-52.084,-52.083 -136.667,-52.083 -188.75,0l-438.75,439.167l-439.167,-438.75c-52.083,-52.084 -136.667,-52.084 -188.75,-0c-52.083,52.083 -52.083,136.666 0,188.75l439.167,438.75l-438.75,439.166c-52.084,52.084 -52.084,136.667 -0,188.75c52.083,52.084 136.666,52.084 188.75,0l438.75,-439.166l439.166,438.75c52.084,52.083 136.667,52.083 188.75,-0c52.084,-52.084 52.084,-136.667 0,-188.75l-439.166,-438.75l438.75,-439.167Z" style="fill:#ef5588;fill-rule:nonzero;"/></svg>